<svg id="Capa_1" data-name="Capa 1" xmlns="http://www.w3.org/2000/svg" viewBox="0 0 179.85 36.13"><defs><style>.cls-1{fill:#fff;}</style></defs><title>Mesa de trabajo 1</title><path class="cls-1" d="M74.44,26.32h-1v9.26h1Zm4.89,9.26h1V28.44L87.59,36V26.32h-1v7.17l-7.22-7.56Zm13.19,0h1V28.44L100.78,36V26.32h-1v7.17l-7.22-7.56ZM110,26.16a4.79,4.79,0,1,0,4.83,4.8,4.83,4.83,0,0,0-4.83-4.8m0,1a3.83,3.83,0,1,1-3.8,3.83,3.81,3.81,0,0,1,3.8-3.83m9.43-.8h-1.12l3.76,9.81,3.76-9.81h-1.12l-2.64,7.06Zm14.46,6.63,1.1,2.63h1.14L132,25.87l-4.27,9.7h1.13L130,32.95Zm-.4-1h-3.13L132,28.28Zm13.66-4.92a4.49,4.49,0,0,0-2.76-.91,4.79,4.79,0,1,0,0,9.58,4.78,4.78,0,0,0,2.76-.91V33.55a4.07,4.07,0,0,1-2.8,1.23,3.83,3.83,0,0,1,0-7.66,4,4,0,0,1,2.83,1.23Zm5.74-.75h-1v9.26h1Zm9.19-.16a4.79,4.79,0,1,0,4.82,4.8,4.83,4.83,0,0,0-4.82-4.8m0,1a3.83,3.83,0,1,1-3.8,3.83,3.81,3.81,0,0,1,3.8-3.83m9.24,8.46h1V28.44L179.58,36V26.32h-1v7.17l-7.22-7.56Z"/><path class="cls-1" d="M15.76,22.41l-2.67-7.59H5.93L3.26,22.41H0L8,.55h3l8,21.85ZM10.21,6.59l-.7-2.4-.69,2.4-2,5.66h5.34Z"/><rect class="cls-1" x="98.85" y="0.56" width="3.05" height="21.85"/><rect class="cls-1" x="98.85" y="0.56" width="3.05" height="21.85"/><polygon class="cls-1" points="129.52 22.41 129.52 8.2 122.2 22.41 120.33 22.41 113.01 8.2 113.01 22.41 110.07 22.41 110.07 0.55 112.21 0.55 121.29 17.92 130.32 0.55 132.46 0.55 132.46 22.41 129.52 22.41"/><polygon class="cls-1" points="140.37 22.41 140.37 0.55 153.46 0.55 153.46 3.28 143.41 3.28 143.41 10.01 151.1 10.01 151.1 12.74 143.41 12.74 143.41 19.68 153.94 19.68 153.94 22.41 140.37 22.41"/><path class="cls-1" d="M167.35,22.41h-7.21V.55h7c6.41,0,12.71,4,12.71,11s-6.14,10.85-12.5,10.85m-.05-19.13h-4.11v16.3h4.27c5.13,0,9.24-2.89,9.24-8s-4.28-8.28-9.4-8.28"/><path class="cls-1" d="M28.75,3.28H26.56V11h2c2.51,0,5-1,5-4,0-2.51-1.49-3.74-4.86-3.74m6.86,19.1-6.37-8.83H26.56v8.87h-3V.56H29c4.81,0,7.75,2.51,7.75,6.47A6.18,6.18,0,0,1,32.49,13l6.79,9.42Z"/><path class="cls-1" d="M82.08,22.41c-5.18,0-8.66-3.22-8.66-7.68V.55h3.1V14.73c0,3.06,2.28,5.09,5.56,5.09s5.56-2,5.56-5.08V.56h3.1V14.73c0,4.46-3.48,7.68-8.66,7.68"/><path class="cls-1" d="M46.18,11.52a8.64,8.64,0,0,0,1.18,4.36,7.88,7.88,0,0,0,3.53,3.49c1.9,1.1,6.87,2.67,14.53,3.68h-10c-6.73,0-12.38-5.17-12.38-11.53S48.52,0,55.25,0,67.44,5.16,67.44,11.52A11.35,11.35,0,0,1,62.25,21a36.17,36.17,0,0,1-3.9-1.12,8.87,8.87,0,0,0,6-8.32,9.08,9.08,0,0,0-18.15,0"/></svg>